<mxfile host="app.diagrams.net" modified="2024-06-26T03:01:51.271Z" agent="Mozilla/5.0 (Macintosh; Intel Mac OS X 10_15_7) AppleWebKit/537.36 (KHTML, like Gecko) Chrome/126.0.0.0 Safari/537.36" version="24.6.3" etag="c8AHRqA8i8R6gtWZyQfD" type="github">
  <diagram name="第 1 页" id="_nb8rTLpBzsylu5gbivW">
    <mxGraphModel>
      <root>
        <mxCell id="0" />
        <mxCell id="1" parent="0" />
      </root>
    </mxGraphModel>
  </diagram>
</mxfile>
